<svg xmlns="http://www.w3.org/2000/svg" width="320" height="6340" viewBox="0 0 320 6340">
  <rect width="100%" height="100%" fill="#faf8f4" />
  <g fill="none" stroke="#111111" stroke-width="1.4">
  <rect x="90.00" y="90.00" width="70" height="70" transform="translate(0.00 -0.00) rotate(0.00 125.00 125.00)" />
  <rect x="160.00" y="90.00" width="70" height="70" transform="translate(-0.00 0.00) rotate(-0.00 195.00 125.00)" />
  <rect x="90.00" y="160.00" width="70" height="70" transform="translate(0.00 0.01) rotate(0.01 125.00 195.00)" />
  <rect x="160.00" y="160.00" width="70" height="70" transform="translate(0.00 0.01) rotate(-0.01 195.00 195.00)" />
  <rect x="90.00" y="230.00" width="70" height="70" transform="translate(0.03 -0.03) rotate(0.03 125.00 265.00)" />
  <rect x="160.00" y="230.00" width="70" height="70" transform="translate(0.01 -0.02) rotate(0.03 195.00 265.00)" />
  <rect x="90.00" y="300.00" width="70" height="70" transform="translate(-0.01 -0.00) rotate(0.01 125.00 335.00)" />
  <rect x="160.00" y="300.00" width="70" height="70" transform="translate(-0.06 -0.00) rotate(-0.09 195.00 335.00)" />
  <rect x="90.00" y="370.00" width="70" height="70" transform="translate(0.08 0.03) rotate(0.05 125.00 405.00)" />
  <rect x="160.00" y="370.00" width="70" height="70" transform="translate(0.07 0.07) rotate(-0.12 195.00 405.00)" />
  <rect x="90.00" y="440.00" width="70" height="70" transform="translate(0.12 -0.07) rotate(-0.13 125.00 475.00)" />
  <rect x="160.00" y="440.00" width="70" height="70" transform="translate(-0.07 -0.17) rotate(0.15 195.00 475.00)" />
  <rect x="90.00" y="510.00" width="70" height="70" transform="translate(0.05 -0.27) rotate(-0.31 125.00 545.00)" />
  <rect x="160.00" y="510.00" width="70" height="70" transform="translate(0.08 0.05) rotate(0.35 195.00 545.00)" />
  <rect x="90.00" y="580.00" width="70" height="70" transform="translate(-0.08 0.36) rotate(0.13 125.00 615.00)" />
  <rect x="160.00" y="580.00" width="70" height="70" transform="translate(0.38 0.35) rotate(-0.34 195.00 615.00)" />
  <rect x="90.00" y="650.00" width="70" height="70" transform="translate(0.21 0.26) rotate(0.54 125.00 685.00)" />
  <rect x="160.00" y="650.00" width="70" height="70" transform="translate(0.33 0.13) rotate(-0.21 195.00 685.00)" />
  <rect x="90.00" y="720.00" width="70" height="70" transform="translate(0.49 -0.45) rotate(-0.45 125.00 755.00)" />
  <rect x="160.00" y="720.00" width="70" height="70" transform="translate(-0.62 0.38) rotate(-0.39 195.00 755.00)" />
  <rect x="90.00" y="790.00" width="70" height="70" transform="translate(-0.46 -0.06) rotate(0.06 125.00 825.00)" />
  <rect x="160.00" y="790.00" width="70" height="70" transform="translate(0.01 -0.01) rotate(-0.85 195.00 825.00)" />
  <rect x="90.00" y="860.00" width="70" height="70" transform="translate(-0.45 0.46) rotate(0.33 125.00 895.00)" />
  <rect x="160.00" y="860.00" width="70" height="70" transform="translate(0.09 0.33) rotate(0.43 195.00 895.00)" />
  <rect x="90.00" y="930.00" width="70" height="70" transform="translate(0.40 0.62) rotate(-0.95 125.00 965.00)" />
  <rect x="160.00" y="930.00" width="70" height="70" transform="translate(0.97 -0.13) rotate(0.38 195.00 965.00)" />
  <rect x="90.00" y="1000.00" width="70" height="70" transform="translate(1.15 -1.51) rotate(-1.05 125.00 1035.00)" />
  <rect x="160.00" y="1000.00" width="70" height="70" transform="translate(-0.09 0.61) rotate(-0.50 195.00 1035.00)" />
  <rect x="90.00" y="1070.00" width="70" height="70" transform="translate(-0.60 1.08) rotate(-1.01 125.00 1105.00)" />
  <rect x="160.00" y="1070.00" width="70" height="70" transform="translate(-0.69 0.13) rotate(1.24 195.00 1105.00)" />
  <rect x="90.00" y="1140.00" width="70" height="70" transform="translate(-1.09 -1.18) rotate(-2.58 125.00 1175.00)" />
  <rect x="160.00" y="1140.00" width="70" height="70" transform="translate(1.00 -0.65) rotate(-1.66 195.00 1175.00)" />
  <rect x="90.00" y="1210.00" width="70" height="70" transform="translate(1.38 2.01) rotate(-0.76 125.00 1245.00)" />
  <rect x="160.00" y="1210.00" width="70" height="70" transform="translate(-1.81 -1.68) rotate(-2.85 195.00 1245.00)" />
  <rect x="90.00" y="1280.00" width="70" height="70" transform="translate(1.35 -0.34) rotate(-2.95 125.00 1315.00)" />
  <rect x="160.00" y="1280.00" width="70" height="70" transform="translate(0.64 1.85) rotate(2.65 195.00 1315.00)" />
  <rect x="90.00" y="1350.00" width="70" height="70" transform="translate(0.87 2.72) rotate(-3.64 125.00 1385.00)" />
  <rect x="160.00" y="1350.00" width="70" height="70" transform="translate(1.58 -0.22) rotate(-1.85 195.00 1385.00)" />
  <rect x="90.00" y="1420.00" width="70" height="70" transform="translate(-1.18 0.47) rotate(-0.65 125.00 1455.00)" />
  <rect x="160.00" y="1420.00" width="70" height="70" transform="translate(-1.17 2.10) rotate(2.40 195.00 1455.00)" />
  <rect x="90.00" y="1490.00" width="70" height="70" transform="translate(1.08 -2.80) rotate(3.26 125.00 1525.00)" />
  <rect x="160.00" y="1490.00" width="70" height="70" transform="translate(-2.88 -1.99) rotate(-0.34 195.00 1525.00)" />
  <rect x="90.00" y="1560.00" width="70" height="70" transform="translate(-1.75 2.75) rotate(-4.85 125.00 1595.00)" />
  <rect x="160.00" y="1560.00" width="70" height="70" transform="translate(0.03 0.49) rotate(-4.07 195.00 1595.00)" />
  <rect x="90.00" y="1630.00" width="70" height="70" transform="translate(1.36 -1.55) rotate(-0.93 125.00 1665.00)" />
  <rect x="160.00" y="1630.00" width="70" height="70" transform="translate(1.93 -3.58) rotate(-0.23 195.00 1665.00)" />
  <rect x="90.00" y="1700.00" width="70" height="70" transform="translate(4.04 -4.37) rotate(4.04 125.00 1735.00)" />
  <rect x="160.00" y="1700.00" width="70" height="70" transform="translate(1.83 4.04) rotate(3.52 195.00 1735.00)" />
  <rect x="90.00" y="1770.00" width="70" height="70" transform="translate(1.41 -3.71) rotate(-1.96 125.00 1805.00)" />
  <rect x="160.00" y="1770.00" width="70" height="70" transform="translate(1.14 -2.47) rotate(-3.29 195.00 1805.00)" />
  <rect x="90.00" y="1840.00" width="70" height="70" transform="translate(3.03 -3.05) rotate(4.87 125.00 1875.00)" />
  <rect x="160.00" y="1840.00" width="70" height="70" transform="translate(-1.05 4.87) rotate(0.69 195.00 1875.00)" />
  <rect x="90.00" y="1910.00" width="70" height="70" transform="translate(-3.65 -1.45) rotate(-4.43 125.00 1945.00)" />
  <rect x="160.00" y="1910.00" width="70" height="70" transform="translate(-5.47 3.43) rotate(-0.08 195.00 1945.00)" />
  <rect x="90.00" y="1980.00" width="70" height="70" transform="translate(-1.49 0.18) rotate(-5.28 125.00 2015.00)" />
  <rect x="160.00" y="1980.00" width="70" height="70" transform="translate(-3.06 -6.27) rotate(0.44 195.00 2015.00)" />
  <rect x="90.00" y="2050.00" width="70" height="70" transform="translate(-2.81 5.27) rotate(-9.07 125.00 2085.00)" />
  <rect x="160.00" y="2050.00" width="70" height="70" transform="translate(-3.88 5.71) rotate(4.02 195.00 2085.00)" />
  <rect x="90.00" y="2120.00" width="70" height="70" transform="translate(-1.81 5.75) rotate(-1.20 125.00 2155.00)" />
  <rect x="160.00" y="2120.00" width="70" height="70" transform="translate(-6.57 -1.59) rotate(4.95 195.00 2155.00)" />
  <rect x="90.00" y="2190.00" width="70" height="70" transform="translate(3.61 -7.12) rotate(7.05 125.00 2225.00)" />
  <rect x="160.00" y="2190.00" width="70" height="70" transform="translate(6.42 4.59) rotate(-5.75 195.00 2225.00)" />
  <rect x="90.00" y="2260.00" width="70" height="70" transform="translate(-2.45 -5.91) rotate(3.19 125.00 2295.00)" />
  <rect x="160.00" y="2260.00" width="70" height="70" transform="translate(1.09 7.75) rotate(-6.43 195.00 2295.00)" />
  <rect x="90.00" y="2330.00" width="70" height="70" transform="translate(0.10 9.09) rotate(8.44 125.00 2365.00)" />
  <rect x="160.00" y="2330.00" width="70" height="70" transform="translate(4.59 -5.40) rotate(0.88 195.00 2365.00)" />
  <rect x="90.00" y="2400.00" width="70" height="70" transform="translate(-2.00 4.68) rotate(-0.02 125.00 2435.00)" />
  <rect x="160.00" y="2400.00" width="70" height="70" transform="translate(-3.05 9.64) rotate(-6.79 195.00 2435.00)" />
  <rect x="90.00" y="2470.00" width="70" height="70" transform="translate(-8.70 -3.55) rotate(5.40 125.00 2505.00)" />
  <rect x="160.00" y="2470.00" width="70" height="70" transform="translate(8.61 -5.90) rotate(13.37 195.00 2505.00)" />
  <rect x="90.00" y="2540.00" width="70" height="70" transform="translate(-9.42 1.70) rotate(5.65 125.00 2575.00)" />
  <rect x="160.00" y="2540.00" width="70" height="70" transform="translate(1.00 -3.08) rotate(-7.04 195.00 2575.00)" />
  <rect x="90.00" y="2610.00" width="70" height="70" transform="translate(0.67 -2.24) rotate(13.91 125.00 2645.00)" />
  <rect x="160.00" y="2610.00" width="70" height="70" transform="translate(4.69 0.47) rotate(7.99 195.00 2645.00)" />
  <rect x="90.00" y="2680.00" width="70" height="70" transform="translate(8.55 -3.75) rotate(2.24 125.00 2715.00)" />
  <rect x="160.00" y="2680.00" width="70" height="70" transform="translate(3.67 -6.43) rotate(2.41 195.00 2715.00)" />
  <rect x="90.00" y="2750.00" width="70" height="70" transform="translate(9.84 -6.69) rotate(-13.09 125.00 2785.00)" />
  <rect x="160.00" y="2750.00" width="70" height="70" transform="translate(-0.36 9.24) rotate(11.67 195.00 2785.00)" />
  <rect x="90.00" y="2820.00" width="70" height="70" transform="translate(0.69 -2.91) rotate(1.03 125.00 2855.00)" />
  <rect x="160.00" y="2820.00" width="70" height="70" transform="translate(-12.61 11.91) rotate(8.46 195.00 2855.00)" />
  <rect x="90.00" y="2890.00" width="70" height="70" transform="translate(13.30 10.10) rotate(-13.56 125.00 2925.00)" />
  <rect x="160.00" y="2890.00" width="70" height="70" transform="translate(-0.74 5.11) rotate(8.03 195.00 2925.00)" />
  <rect x="90.00" y="2960.00" width="70" height="70" transform="translate(2.42 3.81) rotate(17.87 125.00 2995.00)" />
  <rect x="160.00" y="2960.00" width="70" height="70" transform="translate(10.60 4.99) rotate(-17.11 195.00 2995.00)" />
  <rect x="90.00" y="3030.00" width="70" height="70" transform="translate(12.20 10.91) rotate(6.05 125.00 3065.00)" />
  <rect x="160.00" y="3030.00" width="70" height="70" transform="translate(-11.84 11.35) rotate(9.88 195.00 3065.00)" />
  <rect x="90.00" y="3100.00" width="70" height="70" transform="translate(-10.57 11.83) rotate(9.94 125.00 3135.00)" />
  <rect x="160.00" y="3100.00" width="70" height="70" transform="translate(-4.12 9.47) rotate(2.30 195.00 3135.00)" />
  <rect x="90.00" y="3170.00" width="70" height="70" transform="translate(16.90 7.95) rotate(2.18 125.00 3205.00)" />
  <rect x="160.00" y="3170.00" width="70" height="70" transform="translate(16.80 11.28) rotate(-3.93 195.00 3205.00)" />
  <rect x="90.00" y="3240.00" width="70" height="70" transform="translate(4.00 16.25) rotate(3.80 125.00 3275.00)" />
  <rect x="160.00" y="3240.00" width="70" height="70" transform="translate(-14.75 1.21) rotate(15.77 195.00 3275.00)" />
  <rect x="90.00" y="3310.00" width="70" height="70" transform="translate(6.17 -6.27) rotate(-10.62 125.00 3345.00)" />
  <rect x="160.00" y="3310.00" width="70" height="70" transform="translate(-15.85 4.40) rotate(19.97 195.00 3345.00)" />
  <rect x="90.00" y="3380.00" width="70" height="70" transform="translate(-5.36 8.13) rotate(-4.64 125.00 3415.00)" />
  <rect x="160.00" y="3380.00" width="70" height="70" transform="translate(5.76 -12.75) rotate(-15.90 195.00 3415.00)" />
  <rect x="90.00" y="3450.00" width="70" height="70" transform="translate(19.79 -2.13) rotate(19.83 125.00 3485.00)" />
  <rect x="160.00" y="3450.00" width="70" height="70" transform="translate(9.01 9.86) rotate(10.32 195.00 3485.00)" />
  <rect x="90.00" y="3520.00" width="70" height="70" transform="translate(5.44 19.12) rotate(16.05 125.00 3555.00)" />
  <rect x="160.00" y="3520.00" width="70" height="70" transform="translate(-5.19 -12.53) rotate(21.93 195.00 3555.00)" />
  <rect x="90.00" y="3590.00" width="70" height="70" transform="translate(-8.45 -14.09) rotate(23.55 125.00 3625.00)" />
  <rect x="160.00" y="3590.00" width="70" height="70" transform="translate(5.90 -10.23) rotate(0.07 195.00 3625.00)" />
  <rect x="90.00" y="3660.00" width="70" height="70" transform="translate(-17.55 -16.01) rotate(-8.37 125.00 3695.00)" />
  <rect x="160.00" y="3660.00" width="70" height="70" transform="translate(0.28 3.70) rotate(4.09 195.00 3695.00)" />
  <rect x="90.00" y="3730.00" width="70" height="70" transform="translate(-1.56 -13.86) rotate(17.57 125.00 3765.00)" />
  <rect x="160.00" y="3730.00" width="70" height="70" transform="translate(11.87 18.24) rotate(6.11 195.00 3765.00)" />
  <rect x="90.00" y="3800.00" width="70" height="70" transform="translate(-5.16 -15.55) rotate(-20.50 125.00 3835.00)" />
  <rect x="160.00" y="3800.00" width="70" height="70" transform="translate(-12.17 23.67) rotate(15.53 195.00 3835.00)" />
  <rect x="90.00" y="3870.00" width="70" height="70" transform="translate(-10.60 0.77) rotate(31.64 125.00 3905.00)" />
  <rect x="160.00" y="3870.00" width="70" height="70" transform="translate(13.74 -22.69) rotate(3.20 195.00 3905.00)" />
  <rect x="90.00" y="3940.00" width="70" height="70" transform="translate(-15.22 19.94) rotate(7.12 125.00 3975.00)" />
  <rect x="160.00" y="3940.00" width="70" height="70" transform="translate(-25.88 16.42) rotate(-19.95 195.00 3975.00)" />
  <rect x="90.00" y="4010.00" width="70" height="70" transform="translate(-10.88 19.53) rotate(-13.79 125.00 4045.00)" />
  <rect x="160.00" y="4010.00" width="70" height="70" transform="translate(-6.44 22.90) rotate(25.94 195.00 4045.00)" />
  <rect x="90.00" y="4080.00" width="70" height="70" transform="translate(-14.02 21.60) rotate(-20.66 125.00 4115.00)" />
  <rect x="160.00" y="4080.00" width="70" height="70" transform="translate(-9.16 6.35) rotate(-14.06 195.00 4115.00)" />
  <rect x="90.00" y="4150.00" width="70" height="70" transform="translate(12.59 -22.91) rotate(-8.39 125.00 4185.00)" />
  <rect x="160.00" y="4150.00" width="70" height="70" transform="translate(10.81 -24.17) rotate(-35.14 195.00 4185.00)" />
  <rect x="90.00" y="4220.00" width="70" height="70" transform="translate(-28.21 -22.41) rotate(31.24 125.00 4255.00)" />
  <rect x="160.00" y="4220.00" width="70" height="70" transform="translate(21.01 -15.17) rotate(21.73 195.00 4255.00)" />
  <rect x="90.00" y="4290.00" width="70" height="70" transform="translate(-27.64 -22.28) rotate(29.41 125.00 4325.00)" />
  <rect x="160.00" y="4290.00" width="70" height="70" transform="translate(17.54 11.20) rotate(-14.06 195.00 4325.00)" />
  <rect x="90.00" y="4360.00" width="70" height="70" transform="translate(-13.32 -0.47) rotate(36.82 125.00 4395.00)" />
  <rect x="160.00" y="4360.00" width="70" height="70" transform="translate(-23.11 -20.77) rotate(-5.04 195.00 4395.00)" />
  <rect x="90.00" y="4430.00" width="70" height="70" transform="translate(-34.62 -15.14) rotate(-4.30 125.00 4465.00)" />
  <rect x="160.00" y="4430.00" width="70" height="70" transform="translate(6.74 12.00) rotate(32.54 195.00 4465.00)" />
  <rect x="90.00" y="4500.00" width="70" height="70" transform="translate(30.09 21.76) rotate(16.19 125.00 4535.00)" />
  <rect x="160.00" y="4500.00" width="70" height="70" transform="translate(4.07 -33.55) rotate(-30.34 195.00 4535.00)" />
  <rect x="90.00" y="4570.00" width="70" height="70" transform="translate(36.67 29.86) rotate(42.50 125.00 4605.00)" />
  <rect x="160.00" y="4570.00" width="70" height="70" transform="translate(-15.63 20.88) rotate(47.20 195.00 4605.00)" />
  <rect x="90.00" y="4640.00" width="70" height="70" transform="translate(23.85 -25.65) rotate(-38.38 125.00 4675.00)" />
  <rect x="160.00" y="4640.00" width="70" height="70" transform="translate(-34.11 31.89) rotate(28.82 195.00 4675.00)" />
  <rect x="90.00" y="4710.00" width="70" height="70" transform="translate(31.18 13.37) rotate(17.60 125.00 4745.00)" />
  <rect x="160.00" y="4710.00" width="70" height="70" transform="translate(-28.67 14.39) rotate(31.29 195.00 4745.00)" />
  <rect x="90.00" y="4780.00" width="70" height="70" transform="translate(-3.23 -25.59) rotate(45.46 125.00 4815.00)" />
  <rect x="160.00" y="4780.00" width="70" height="70" transform="translate(3.94 -33.02) rotate(-28.58 195.00 4815.00)" />
  <rect x="90.00" y="4850.00" width="70" height="70" transform="translate(-38.64 16.42) rotate(-2.02 125.00 4885.00)" />
  <rect x="160.00" y="4850.00" width="70" height="70" transform="translate(36.52 -40.46) rotate(28.40 195.00 4885.00)" />
  <rect x="90.00" y="4920.00" width="70" height="70" transform="translate(-35.78 10.13) rotate(-32.73 125.00 4955.00)" />
  <rect x="160.00" y="4920.00" width="70" height="70" transform="translate(2.84 8.92) rotate(0.26 195.00 4955.00)" />
  <rect x="90.00" y="4990.00" width="70" height="70" transform="translate(-26.37 -31.67) rotate(-33.24 125.00 5025.00)" />
  <rect x="160.00" y="4990.00" width="70" height="70" transform="translate(-31.44 42.79) rotate(-23.51 195.00 5025.00)" />
  <rect x="90.00" y="5060.00" width="70" height="70" transform="translate(10.54 -15.19) rotate(4.18 125.00 5095.00)" />
  <rect x="160.00" y="5060.00" width="70" height="70" transform="translate(35.96 -43.97) rotate(-40.14 195.00 5095.00)" />
  <rect x="90.00" y="5130.00" width="70" height="70" transform="translate(-12.37 5.85) rotate(-13.04 125.00 5165.00)" />
  <rect x="160.00" y="5130.00" width="70" height="70" transform="translate(3.88 1.04) rotate(53.62 195.00 5165.00)" />
  <rect x="90.00" y="5200.00" width="70" height="70" transform="translate(47.01 -42.13) rotate(20.34 125.00 5235.00)" />
  <rect x="160.00" y="5200.00" width="70" height="70" transform="translate(-31.42 -27.35) rotate(10.79 195.00 5235.00)" />
  <rect x="90.00" y="5270.00" width="70" height="70" transform="translate(-25.44 47.70) rotate(-7.59 125.00 5305.00)" />
  <rect x="160.00" y="5270.00" width="70" height="70" transform="translate(48.78 40.69) rotate(-3.76 195.00 5305.00)" />
  <rect x="90.00" y="5340.00" width="70" height="70" transform="translate(43.61 32.78) rotate(49.39 125.00 5375.00)" />
  <rect x="160.00" y="5340.00" width="70" height="70" transform="translate(42.25 -34.25) rotate(-5.03 195.00 5375.00)" />
  <rect x="90.00" y="5410.00" width="70" height="70" transform="translate(25.77 -18.54) rotate(-18.84 125.00 5445.00)" />
  <rect x="160.00" y="5410.00" width="70" height="70" transform="translate(-36.37 -22.69) rotate(-1.44 195.00 5445.00)" />
  <rect x="90.00" y="5480.00" width="70" height="70" transform="translate(43.85 -40.70) rotate(-2.65 125.00 5515.00)" />
  <rect x="160.00" y="5480.00" width="70" height="70" transform="translate(-37.54 29.95) rotate(-32.64 195.00 5515.00)" />
  <rect x="90.00" y="5550.00" width="70" height="70" transform="translate(45.59 37.63) rotate(-48.62 125.00 5585.00)" />
  <rect x="160.00" y="5550.00" width="70" height="70" transform="translate(-20.78 34.30) rotate(48.20 195.00 5585.00)" />
  <rect x="90.00" y="5620.00" width="70" height="70" transform="translate(20.52 -47.09) rotate(-8.73 125.00 5655.00)" />
  <rect x="160.00" y="5620.00" width="70" height="70" transform="translate(31.15 -15.92) rotate(59.31 195.00 5655.00)" />
  <rect x="90.00" y="5690.00" width="70" height="70" transform="translate(24.10 -46.45) rotate(-68.64 125.00 5725.00)" />
  <rect x="160.00" y="5690.00" width="70" height="70" transform="translate(-34.09 40.90) rotate(68.59 195.00 5725.00)" />
  <rect x="90.00" y="5760.00" width="70" height="70" transform="translate(15.49 46.61) rotate(31.84 125.00 5795.00)" />
  <rect x="160.00" y="5760.00" width="70" height="70" transform="translate(53.17 35.70) rotate(55.43 195.00 5795.00)" />
  <rect x="90.00" y="5830.00" width="70" height="70" transform="translate(-16.35 -50.14) rotate(-28.41 125.00 5865.00)" />
  <rect x="160.00" y="5830.00" width="70" height="70" transform="translate(56.57 -59.39) rotate(43.06 195.00 5865.00)" />
  <rect x="90.00" y="5900.00" width="70" height="70" transform="translate(-8.27 -26.35) rotate(-18.02 125.00 5935.00)" />
  <rect x="160.00" y="5900.00" width="70" height="70" transform="translate(-54.37 14.98) rotate(-71.94 195.00 5935.00)" />
  <rect x="90.00" y="5970.00" width="70" height="70" transform="translate(-19.78 -32.09) rotate(-20.27 125.00 6005.00)" />
  <rect x="160.00" y="5970.00" width="70" height="70" transform="translate(-39.11 27.48) rotate(17.90 195.00 6005.00)" />
  <rect x="90.00" y="6040.00" width="70" height="70" transform="translate(-64.98 6.94) rotate(54.74 125.00 6075.00)" />
  <rect x="160.00" y="6040.00" width="70" height="70" transform="translate(-64.46 31.23) rotate(-37.25 195.00 6075.00)" />
  <rect x="90.00" y="6110.00" width="70" height="70" transform="translate(46.82 -25.31) rotate(-42.48 125.00 6145.00)" />
  <rect x="160.00" y="6110.00" width="70" height="70" transform="translate(2.96 -54.92) rotate(-21.95 195.00 6145.00)" />
  <rect x="90.00" y="6180.00" width="70" height="70" transform="translate(21.11 -44.24) rotate(-86.40 125.00 6215.00)" />
  <rect x="160.00" y="6180.00" width="70" height="70" transform="translate(-19.87 32.53) rotate(27.94 195.00 6215.00)" />
  </g>
</svg>